<svg width="500" height="48" viewBox="0 0 500 48" fill="none" xmlns="http://www.w3.org/2000/svg">
<path d="M0 4.2C0 1.88041 1.8804 0 4.2 0H495.8C498.12 0 500 1.8804 500 4.2V48H0V4.2Z" fill="#F5F5F5"/>
<g style="mix-blend-mode:multiply" opacity="0.24">
<line y1="47.5" x2="500" y2="47.5" stroke="#737374"/>
</g>
<rect x="120" y="8" width="298" height="31" rx="15.5" fill="white"/>
<g opacity="0.24">
<path d="M26.7 22.725H17.2683L21.6005 18.3928L20.5 17.3L14.3 23.5L20.5 29.7L21.5928 28.6073L17.2683 24.275H26.7V22.725Z" fill="#737374"/>
</g>
<g opacity="0.24">
<path d="M49.3 22.725H58.7317L54.3995 18.3928L55.5 17.3L61.7 23.5L55.5 29.7L54.4072 28.6073L58.7317 24.275H49.3V22.725Z" fill="#737374"/>
</g>
<path d="M99.15 23.5L102.25 23.5L98.375 27.375L94.5 23.5L97.6 23.5C97.6 22.2667 97.1101 21.0839 96.238 20.2119C95.366 19.3399 94.1833 18.85 92.95 18.85C91.7167 18.85 90.534 19.3399 89.662 20.2119C88.7899 21.0839 88.3 22.2667 88.3 23.5C88.3 24.7332 88.7899 25.916 89.662 26.788C90.534 27.66 91.7167 28.15 92.95 28.15L92.95 29.7C91.3057 29.7 89.7287 29.0467 88.5659 27.884C87.4032 26.7213 86.75 25.1443 86.75 23.5C86.75 21.8556 87.4032 20.2786 88.5659 19.1159C89.7287 17.9532 91.3057 17.3 92.95 17.3C94.5943 17.3 96.1713 17.9532 97.3341 19.1159C98.4968 20.2786 99.15 21.8556 99.15 23.5V23.5Z" fill="#737374"/>
<path d="M480.5 27.3999C480.885 27.3999 481.253 27.5527 481.525 27.8246C481.797 28.0966 481.95 28.4654 481.95 28.8499C481.95 29.2345 481.797 29.6033 481.525 29.8753C481.253 30.1472 480.885 30.2999 480.5 30.2999C480.115 30.2999 479.747 30.1472 479.475 29.8753C479.203 29.6033 479.05 29.2345 479.05 28.8499C479.05 28.4654 479.203 28.0966 479.475 27.8246C479.747 27.5527 480.115 27.3999 480.5 27.3999ZM480.5 23.05C480.885 23.05 481.253 23.2027 481.525 23.4746C481.797 23.7466 481.95 24.1154 481.95 24.4999C481.95 24.8845 481.797 25.2533 481.525 25.5253C481.253 25.7972 480.885 25.9499 480.5 25.9499C480.115 25.9499 479.747 25.7972 479.475 25.5253C479.203 25.2533 479.05 24.8845 479.05 24.4999C479.05 24.1154 479.203 23.7466 479.475 23.4746C479.747 23.2027 480.115 23.05 480.5 23.05V23.05ZM480.5 18.7C480.885 18.7 481.253 18.8527 481.525 19.1246C481.797 19.3966 481.95 19.7654 481.95 20.15C481.95 20.5345 481.797 20.9033 481.525 21.1753C481.253 21.4472 480.885 21.6 480.5 21.6C480.115 21.6 479.747 21.4472 479.475 21.1753C479.203 20.9033 479.05 20.5345 479.05 20.15C479.05 19.7654 479.203 19.3966 479.475 19.1246C479.747 18.8527 480.115 18.7 480.5 18.7Z" fill="#737374"/>
<path d="M444.5 26.9578L441.774 28.6035L442.492 25.5005L440.085 23.4125L443.26 23.1443L444.5 20.2153L445.74 23.1443L448.915 23.4125L446.508 25.5005L447.226 28.6035L444.5 26.9578ZM451.75 22.499L446.537 22.0568L444.5 17.25L442.463 22.0568L437.25 22.499L441.201 25.9283L440.02 31.025L444.5 28.3208L448.981 31.025L447.792 25.9283L451.75 22.499Z" fill="#737374"/>
</svg>
