<svg width="13" height="13" viewBox="0 0 13 13" fill="none" xmlns="http://www.w3.org/2000/svg">
<path fill-rule="evenodd" clip-rule="evenodd" d="M6.00153 0.5C2.69313 0.5 0.00152588 3.1916 0.00152588 6.5C0.00152588 9.8084 2.69313 12.5 6.00153 12.5C9.30993 12.5 12.0015 9.8084 12.0015 6.5C12.0015 3.1916 9.30993 0.5 6.00153 0.5ZM10.6684 6.5C10.6684 7.21578 10.5016 7.8926 10.2114 8.50016H7.33465C6.65731 8.50016 6.66809 7.83313 6.66809 7.83313C6.66809 7.46656 6.36809 7.16656 6.00153 7.16656H4.77945C4.76023 7.16656 4.74429 7.17688 4.72554 7.17781C4.70538 7.17688 4.68898 7.16656 4.66835 7.16656C4.30132 7.16656 4.00132 6.86656 4.00132 6.5C4.00132 6.13344 4.30132 5.83344 4.66835 5.83344V5.82922L6.00143 5.83344C6.368 5.83344 6.668 5.53344 6.668 5.16687C6.668 5.16687 6.668 4.49984 7.33456 4.49984H8.00159C8.36816 4.49984 8.66816 4.19984 8.66816 3.83328V2.67594C9.8756 3.52063 10.6683 4.9185 10.6683 6.49998L10.6684 6.5ZM1.3346 6.49998C1.3346 6.27544 1.35616 6.05607 1.38663 5.83998C1.996 5.87748 2.00163 6.49998 2.00163 6.49998C2.00163 6.86654 2.30163 7.16654 2.66819 7.16654C2.66819 7.16654 3.33476 7.1806 3.33476 7.8331V8.50014C3.33476 8.8667 3.63476 9.1667 4.00132 9.1667C4.66835 9.1667 4.66835 9.83326 4.66835 9.83326V10.97C2.74367 10.3948 1.33463 8.60935 1.33463 6.49999" fill="black"/>
</svg>
