<?xml version="1.0" encoding="UTF-8"?>
<svg width="100pt" height="100pt" version="1.1" viewBox="0 0 100 100" xmlns="http://www.w3.org/2000/svg">
 <path fill="white" d="m11 11.676h22.172c1.1562 0 2.1719 0.59375 2.7617 1.4961l2.332 2.9805 44.195 0.035156c6.0508 0.003906 10.996 4.9336 10.996 10.988v1.5703c3.9492 1.7656 6.543 5.6992 6.543 10.051v38.535c0 6.0469-4.9531 11-11 11h-78c-6.0469 0-11-4.9531-11-11v-54.648c0-6.0469 4.9531-11 11-11zm32.418 11.055 3.9648 5.0586h39.477v-0.61719c0-2.418-1.9727-4.4141-4.3945-4.4141l-39.043-0.027343zm-11.84-4.4531h-20.578c-2.4336 0-4.3984 1.9688-4.3984 4.3984v54.648c0 2.4336 1.9688 4.3984 4.3984 4.3984h78c2.4336 0 4.3984-1.9688 4.3984-4.3984v-38.535c0-2.4336-1.9688-4.3984-4.3984-4.3984h-43.211c-0.97656-0.011719-1.9453-0.44531-2.5898-1.2773l-11.617-14.84z"/>
</svg>
