<svg width="38" height="41" viewBox="0 0 38 41" fill="none" xmlns="http://www.w3.org/2000/svg">
<path d="M0.277344 0.745087H37.8598V40.2353H0.277344V0.745087Z" fill="#F5DE19"/>
<path d="M31.4294 13.4665C31.1738 12.3476 30.7928 11.4766 30.2731 10.5506L30.2731 10.5506L30.2721 10.5489C30.0195 10.1188 29.5829 9.9006 29.1534 9.9006H28.0575C25.7739 9.9006 23.0568 8.95774 20.9727 7.43733C19.2605 6.1883 18.1293 4.67753 17.7199 3.15897H20.9849H25.6999H28.0575C31.2539 3.15897 33.8513 5.71096 33.8513 8.84366C33.8513 10.7056 32.9215 12.4163 31.4294 13.4665ZM0.845801 10.0006C0.845801 11.8804 1.60965 13.6194 2.86977 14.899C1.67234 15.4831 0.845801 16.6974 0.845801 18.0992C0.845801 20.9325 2.89527 23.3012 5.61204 23.8587C6.0123 28.3312 8.75981 32.1512 12.6335 34.1224V39.0783C12.6335 39.7743 13.2078 40.3353 13.9123 40.3353H23.3424C24.0469 40.3353 24.6212 39.7743 24.6212 39.0783V34.1224C28.4948 32.1512 31.2424 28.3311 31.6427 23.8587C34.3594 23.3012 36.4089 20.9325 36.4089 18.0992C36.4089 16.5137 35.3516 15.169 33.8958 14.7035C35.4662 13.1924 36.4089 11.0955 36.4089 8.84366C36.4089 4.32113 32.6607 0.645087 28.0575 0.645087H25.6999H20.9849H16.2698H4.48211C3.77765 0.645087 3.20334 1.2061 3.20334 1.90203C3.20334 2.79996 3.31905 3.67186 3.53585 4.5045C1.85653 5.82979 0.845801 7.85626 0.845801 10.0006ZM5.86137 3.15897H15.1031C15.5814 5.86288 17.5559 8.23645 20.0964 9.9006H13.9123C9.85213 9.9006 6.47752 6.97297 5.86137 3.15897ZM16.2698 14.5284H8.22145C8.39972 13.4308 8.80958 12.3796 9.42433 11.4455C10.7903 12.067 12.3107 12.4145 13.9123 12.4145H28.3779C28.6953 13.0849 28.9161 13.7969 29.0342 14.5284H20.9849C20.2804 14.5284 19.7061 15.0894 19.7061 15.7853V16.8422H17.5486V15.7853C17.5486 15.0894 16.9742 14.5284 16.2698 14.5284ZM14.991 17.0422V18.0992C14.991 19.956 13.4512 21.47 11.5547 21.47C9.65826 21.47 8.11841 19.956 8.11841 18.0992V17.0422H14.991ZM5.56087 18.0992V21.2272C4.29656 20.7281 3.40334 19.5134 3.40334 18.0992C3.40334 17.5182 3.88559 17.0422 4.48211 17.0422H5.56087V18.0992ZM7.24676 10.1241C6.4922 11.2838 5.9768 12.5793 5.72962 13.9324C4.32552 13.1427 3.40334 11.6559 3.40334 10.0006C3.40334 8.89058 3.82552 7.82854 4.55555 7.01122C5.23946 8.21351 6.15672 9.27089 7.24676 10.1241ZM15.191 37.8214V35.1031C16.2864 35.3965 17.4387 35.5533 18.6273 35.5533C19.816 35.5533 20.9682 35.3965 22.0636 35.1031V37.8214H15.191ZM25.6999 23.9839C26.9764 23.9839 28.1611 23.5898 29.1344 22.9192C29.0296 28.5154 24.3581 33.0394 18.6273 33.0394C12.8965 33.0394 8.22505 28.5154 8.12021 22.9192C9.09357 23.5897 10.2782 23.9839 11.5547 23.9839C12.8342 23.9839 14.0213 23.5879 14.996 22.9146C15.0957 24.7983 16.6879 26.2978 18.6273 26.2978C19.3318 26.2978 19.9061 25.7367 19.9061 25.0408C19.9061 24.3449 19.3318 23.7839 18.6273 23.7839C18.0308 23.7839 17.5486 23.3079 17.5486 22.7269V19.3561H19.8439C20.4321 22.0002 22.8352 23.9839 25.6999 23.9839ZM29.1362 18.0992C29.1362 19.956 27.5964 21.47 25.6999 21.47C23.8035 21.47 22.2636 19.956 22.2636 18.0992V17.0422H29.1362V18.0992ZM33.8513 18.0992C33.8513 19.5134 32.9581 20.7281 31.6938 21.2272V18.0992V17.0422H32.7725C33.3691 17.0422 33.8513 17.5182 33.8513 18.0992Z" fill="black" stroke="black" stroke-width="0.2"/>
<path d="M22.673 28.8748C22.4408 28.2779 21.7595 27.9787 21.1513 28.2067C19.6787 28.7586 18.0776 28.7157 16.6433 28.086C16.049 27.8251 15.3517 28.0864 15.0859 28.6696C14.8201 29.2529 15.0863 29.9372 15.6806 30.1981C17.6898 31.0803 19.9313 31.1408 21.9923 30.3683C22.6005 30.1404 22.9052 29.4717 22.673 28.8748Z" fill="black"/>
<ellipse cx="25.669" cy="18.8448" rx="1.00588" ry="0.987255" fill="black"/>
<ellipse cx="11.5874" cy="18.8448" rx="1.00588" ry="0.987255" fill="black"/>
<path fill-rule="evenodd" clip-rule="evenodd" d="M34.8706 3.15234H3.12941V37.8281H34.8706V3.15234ZM0 0V40.9804H38V0H0Z" fill="black"/>
</svg>
