<svg width="209" height="209" viewBox="0 0 209 209" fill="none" xmlns="http://www.w3.org/2000/svg">
<ellipse cx="104.5" cy="104.106" rx="104.5" ry="104.106" fill="#CC3363"/>
<path d="M109.008 117.008C109.008 112.59 112.59 109.008 117.008 109.008H138.656C141.314 109.008 143.468 111.162 143.468 113.82V113.82C143.468 116.477 141.314 118.631 138.656 118.631H125.887C124.005 118.631 122.479 120.157 122.479 122.04V122.04C122.479 123.922 124.005 125.448 125.887 125.448H135.523C138.181 125.448 140.335 127.602 140.335 130.26V130.26C140.335 132.917 138.181 135.071 135.523 135.071H126.355C124.214 135.071 122.479 136.807 122.479 138.947V138.947C122.479 141.088 124.214 142.824 126.355 142.824H139.439C142.097 142.824 144.251 144.978 144.251 147.635V147.635C144.251 150.293 142.097 152.447 139.439 152.447H117.008C112.59 152.447 109.008 148.865 109.008 144.447V117.008Z" fill="white"/>
<path d="M63.9294 115.81C63.9294 112.053 66.9747 109.008 70.7312 109.008V109.008C74.4878 109.008 77.5331 112.053 77.5331 115.81V124.969C77.5331 125.086 77.6277 125.181 77.7443 125.181V125.181C77.8095 125.181 77.871 125.15 77.9111 125.099L88.7473 111.17C89.8084 109.806 91.4398 109.008 93.1679 109.008V109.008C97.944 109.008 100.529 114.602 97.4326 118.239L94.0803 122.177C91.8146 124.838 91.5419 128.664 93.4072 131.62L100.561 142.958C103.161 147.078 100.2 152.447 95.3285 152.447V152.447C93.0811 152.447 91.0104 151.228 89.9193 149.264L85.3839 141.097C83.9528 138.52 80.3783 138.188 78.4971 140.458V140.458C77.8741 141.209 77.5331 142.155 77.5331 143.131V145.645C77.5331 149.402 74.4878 152.447 70.7312 152.447V152.447C66.9747 152.447 63.9294 149.402 63.9294 145.645V115.81Z" fill="white"/>
<path d="M109.008 62.8151C109.008 59.3566 111.812 56.5529 115.27 56.5529V56.5529C118.729 56.5529 121.532 59.3566 121.532 62.8151V83.4638C121.532 85.2664 121.896 86.7472 122.625 87.906C123.401 89.0649 124.785 89.6443 126.775 89.6443C128.814 89.6443 130.222 89.0649 130.998 87.906C131.775 86.7472 132.163 85.2664 132.163 83.4638V62.5967C132.163 59.2588 134.869 56.5529 138.207 56.5529V56.5529C141.545 56.5529 144.251 59.2588 144.251 62.5967V82.1762C144.251 84.7943 143.911 87.1549 143.232 89.258C142.6 91.3182 141.581 93.0993 140.173 94.6015C138.765 96.0608 136.945 97.1982 134.712 98.0137C132.528 98.7862 129.882 99.1725 126.775 99.1725C123.668 99.1725 120.998 98.7862 118.765 98.0137C116.532 97.1982 114.688 96.0608 113.231 94.6015C111.775 93.0993 110.707 91.3182 110.027 89.258C109.348 87.1549 109.008 84.7943 109.008 82.1762V62.8151Z" fill="white"/>
<path d="M63.9294 63.3033C63.9294 59.5752 66.9517 56.5529 70.6798 56.5529V56.5529C74.4079 56.5529 77.4301 59.5752 77.4301 63.3033V81.7306C77.4301 86.1489 81.0118 89.7306 85.4301 89.7306H94.4516C97.0589 89.7306 99.1725 91.8443 99.1725 94.4516V94.4516C99.1725 97.0589 97.0589 99.1725 94.4516 99.1725H71.9294C67.5111 99.1725 63.9294 95.5908 63.9294 91.1725V63.3033Z" fill="white"/>
</svg>
