<svg width="209" height="209" viewBox="0 0 209 209" fill="none" xmlns="http://www.w3.org/2000/svg">
<circle cx="104.5" cy="104.5" r="104.5" fill="#CC3363"/>
<path d="M67 97.0979C65.3431 97.0979 64 95.7548 64 94.0979V56C64 54.3431 65.3431 53 67 53H73.28C74.9369 53 76.28 54.3431 76.28 56V83.5393C76.28 85.1961 77.6232 86.5393 79.28 86.5393H93.5578C95.2147 86.5393 96.5578 87.8824 96.5578 89.5393V94.0979C96.5578 95.7548 95.2147 97.0979 93.5578 97.0979H67Z" fill="white"/>
<path d="M123.462 86.7256C124.889 86.7256 126.107 86.4151 127.114 85.794C128.122 85.1729 128.94 84.3654 129.57 83.3717C130.2 82.3365 130.662 81.1564 130.956 79.8314C131.25 78.5064 131.396 77.1193 131.396 75.6701V56C131.396 54.3431 132.74 53 134.396 53H140.676C142.333 53 143.676 54.3431 143.676 56V75.6701C143.676 78.7341 143.278 81.6119 142.48 84.3033C141.682 86.9533 140.444 89.2514 138.764 91.1975C137.085 93.1436 134.965 94.6756 132.404 95.7936C129.885 96.9116 126.904 97.4706 123.462 97.4706C119.893 97.4706 116.828 96.8909 114.267 95.7315C111.748 94.5307 109.67 92.9366 108.033 90.9491C106.396 88.9616 105.199 86.6635 104.443 84.0549C103.688 81.4049 103.31 78.6099 103.31 75.6701V56C103.31 54.3431 104.653 53 106.31 53H112.59C114.247 53 115.59 54.3431 115.59 56V75.6701C115.59 77.1193 115.737 78.5271 116.031 79.8935C116.325 81.2185 116.786 82.3986 117.416 83.4338C118.046 84.4275 118.844 85.235 119.809 85.8561C120.817 86.4358 122.034 86.7256 123.462 86.7256Z" fill="white"/>
<path d="M67 156.765C65.3431 156.765 64 155.422 64 153.765V115.294C64 113.637 65.3431 112.294 67 112.294H73.3659C75.0228 112.294 76.3659 113.637 76.3659 115.294V120.735C76.3659 123.562 79.918 124.82 81.6972 122.624L89.1631 113.406C89.7327 112.703 90.5893 112.294 91.4943 112.294H97.6682C100.202 112.294 101.595 115.241 99.9864 117.198L89.1119 130.437C88.2515 131.484 88.2004 132.979 88.9872 134.083L101.776 152.023C103.192 154.009 101.772 156.765 99.3335 156.765H92.5357C91.5443 156.765 90.617 156.275 90.0581 155.456L81.8557 143.442C80.7876 141.878 78.5457 141.692 77.2224 143.047C76.6752 143.608 76.3659 144.363 76.3659 145.146V153.765C76.3659 155.422 75.0228 156.765 73.3659 156.765H67Z" fill="white"/>
<path d="M140.676 146.117C142.333 146.117 143.676 147.46 143.676 149.117V153.765C143.676 155.422 142.333 156.765 140.676 156.765H114.588C112.932 156.765 111.588 155.422 111.588 153.765V115.294C111.588 113.637 112.932 112.294 114.588 112.294H140.106C141.763 112.294 143.106 113.637 143.106 115.294V119.942C143.106 121.599 141.763 122.942 140.106 122.942H126.954C125.298 122.942 123.954 124.285 123.954 125.942V126.206C123.954 127.862 125.298 129.206 126.954 129.206H137.315C138.972 129.206 140.315 130.549 140.315 132.206V136.102C140.315 137.759 138.972 139.102 137.315 139.102H126.954C125.298 139.102 123.954 140.445 123.954 142.102V143.117C123.954 144.774 125.298 146.117 126.954 146.117H140.676Z" fill="white"/>
</svg>
