<svg width="85" height="91" viewBox="0 0 85 91" fill="none" xmlns="http://www.w3.org/2000/svg">
<rect width="85" height="91" fill="#F5DE19"/>
<path d="M71.3724 29.8725C70.7974 27.2757 69.9281 25.2794 68.729 23.1493L68.7281 23.1476C68.1806 22.2181 67.2356 21.7479 66.3068 21.7479H63.8281C58.6332 21.7479 52.4624 19.6114 47.73 16.1695C43.7824 13.2985 41.1829 9.80842 40.2841 6.29585H47.832H58.4959H63.8281C71.1252 6.29585 77.0582 12.1044 77.0582 19.2393C77.0582 23.5436 74.8697 27.492 71.3724 29.8725ZM2.40977 21.8479C2.40977 26.1136 4.17388 30.0561 7.07622 32.93C4.32285 34.1961 2.40977 36.9371 2.40977 40.1087C2.40977 46.4669 7.04659 51.7801 13.1808 52.991C14.0543 63.097 20.2823 71.7318 29.0699 76.1611V87.4128C29.0699 88.9108 30.3104 90.1215 31.8359 90.1215H53.1641C54.6896 90.1215 55.9301 88.9108 55.9301 87.4128V76.1611C64.7177 71.7316 70.9459 63.0968 71.8193 52.991C77.9534 51.7801 82.5902 46.4669 82.5902 40.1087C82.5902 36.5177 80.1376 33.4807 76.7894 32.5094C80.4109 29.1144 82.5902 24.3549 82.5902 19.2393C82.5902 9.113 74.1716 0.878485 63.8281 0.878485H58.4961H47.832H37.168H10.5078C8.98229 0.878485 7.7418 2.08921 7.7418 3.58717C7.7418 5.62958 8.00952 7.6118 8.51064 9.50302C4.70326 12.467 2.40977 17.0248 2.40977 21.8479ZM13.4798 6.29585H34.6354C35.6981 12.5158 40.3162 17.9764 46.2495 21.7479H31.8359C22.54 21.7479 14.8203 15.0279 13.4798 6.29585ZM37.168 32.1827H18.8174C19.2159 29.6023 20.1791 27.1315 21.64 24.9471C24.7384 26.3691 28.1939 27.1653 31.8359 27.1653H64.6325C65.3951 28.753 65.9178 30.4444 66.1848 32.1827H47.832C46.3065 32.1827 45.066 33.3934 45.066 34.8914V37.4H39.934V34.8914C39.934 33.3934 38.6935 32.1827 37.168 32.1827ZM34.402 37.6V40.1087C34.402 44.3667 30.8609 47.8348 26.5039 47.8348C22.147 47.8348 18.6059 44.3667 18.6059 40.1087V37.6H34.402ZM13.0738 40.1087V47.3442C10.078 46.2447 7.9418 43.4157 7.9418 40.1087C7.9418 38.7276 9.09094 37.6 10.5078 37.6H13.0738V40.1087ZM16.9296 22.0985C15.1654 24.773 13.9724 27.7736 13.4226 30.9081C10.1219 29.1294 7.9418 25.6881 7.9418 21.8479C7.9418 19.254 8.95443 16.7759 10.698 14.8941C12.2641 17.6868 14.391 20.1369 16.9296 22.0985ZM34.602 84.7041V78.2853C37.1163 78.9717 39.7653 79.339 42.5 79.339C45.2347 79.339 47.8837 78.9717 50.398 78.2853V84.7041H34.602ZM58.4961 53.2521C61.4453 53.2521 64.1753 52.3163 66.3934 50.7329C66.289 63.5347 55.6126 73.9216 42.5 73.9216C29.3874 73.9216 18.711 63.5347 18.6066 50.7329C20.8247 52.3163 23.5547 53.2521 26.5039 53.2521C29.4544 53.2521 32.1856 52.3155 34.4042 50.7308C34.5062 55.017 38.1006 58.4695 42.5 58.4695C44.0255 58.4695 45.266 57.2588 45.266 55.7608C45.266 54.2629 44.0255 53.0521 42.5 53.0521C41.0831 53.0521 39.934 51.9246 39.934 50.5434V42.8174H45.3532C46.6327 48.771 52.0405 53.2521 58.4961 53.2521ZM66.3941 40.1087C66.3941 44.3667 62.8531 47.8348 58.4961 47.8348C54.1391 47.8348 50.598 44.3667 50.598 40.1087V37.6H66.3941V40.1087ZM77.0582 40.1087C77.0582 43.4158 74.922 46.2447 71.9262 47.3442V40.1087V37.6H74.4922C75.9091 37.6 77.0582 38.7276 77.0582 40.1087Z" fill="black" stroke="black" stroke-width="0.2"/>
<path d="M51.6484 64.4057C51.1233 63.0598 49.5824 62.3853 48.2068 62.8992C44.8761 64.1437 41.2551 64.0471 38.011 62.627C36.667 62.0387 35.0899 62.628 34.4887 63.9431C33.8875 65.2582 34.4897 66.8013 35.8337 67.3896C40.3779 69.3787 45.4476 69.515 50.1088 67.7733C51.4844 67.2594 52.1737 65.7517 51.6484 64.4057Z" fill="black"/>
<ellipse cx="58.425" cy="41.7899" rx="2.275" ry="2.22608" fill="black"/>
<ellipse cx="26.575" cy="41.7899" rx="2.275" ry="2.22608" fill="black"/>
<rect x="3.5" y="3.5" width="78" height="84" stroke="black" stroke-width="7"/>
</svg>
